<?xml version="1.0" encoding="UTF-8"?>
<!-- Created with Inkscape (http://www.inkscape.org/) -->
<svg width="330" height="415" version="1.1" viewBox="0 0 87.312 109.8" xmlns="http://www.w3.org/2000/svg">
 <g stroke-linejoin="round">
  <g transform="rotate(-45 63.889 28.166)">
  <animateMotion xmlns="http://www.w3.org/2000/svg" dur="3s" repeatCount="indefinite" path="M0,0 V 7 V 0 z"/>
   <g fill="#f79329">
    <rect transform="rotate(90)" x="4.2333" y="-73.025" width="47.096" height="77.258" ry="2.9131" stroke-width=".072309"/>
    <rect transform="rotate(45)" x="1.2098" y="-.27277" width="6.1974" height="6.1974" ry="0" stroke-width=".17786"/>
    <rect transform="rotate(45)" x="80.526" y="-21.326" width="6.1974" height="6.1974" ry="0" stroke-width=".17786"/>
   </g>
   <rect transform="rotate(90)" y="-77.258" width="47.096" height="77.258" ry="2.9131" fill="#fbb21b" stroke-width=".072309"/>
   <g transform="translate(1.8521 -51.065)">
    <g transform="translate(-7.9375)">
     <rect x="7.9375" y="52.917" width="13.229" height="13.229" ry="2.2596" fill="#fcc21b" stroke-width=".13229"/>
     <path transform="scale(.26458)" d="m38.541 200c-4.2466 0-7.7487 3.0693-8.4219 7.1191.46219-.07683.93723-.11914 1.4219-.11914h32.918c4.7313 0 8.541 3.8097 8.541 8.541v32.918c0 .48465-.04231.95969-.11914 1.4219 4.0498-.67322 7.1191-4.1752 7.1191-8.4219v-32.918c0-4.7313-3.8097-8.541-8.541-8.541z" fill="#f79329" stroke-width=".5"/>
    </g>
    <g transform="translate(7.1438)">
     <rect x="7.9375" y="52.917" width="13.229" height="13.229" ry="2.2596" fill="#fcc21b" stroke-width=".13229"/>
     <path transform="scale(.26458)" d="m38.541 200c-4.2466 0-7.7487 3.0693-8.4219 7.1191.46219-.07683.93723-.11914 1.4219-.11914h32.918c4.7313 0 8.541 3.8097 8.541 8.541v32.918c0 .48465-.04231.95969-.11914 1.4219 4.0498-.67322 7.1191-4.1752 7.1191-8.4219v-32.918c0-4.7313-3.8097-8.541-8.541-8.541z" fill="#f79329" stroke-width=".5"/>
    </g>
    <g transform="translate(22.225)">
     <rect x="7.9375" y="52.917" width="13.229" height="13.229" ry="2.2596" fill="#fcc21b" stroke-width=".13229"/>
     <path transform="scale(.26458)" d="m38.541 200c-4.2466 0-7.7487 3.0693-8.4219 7.1191.46219-.07683.93723-.11914 1.4219-.11914h32.918c4.7313 0 8.541 3.8097 8.541 8.541v32.918c0 .48465-.04231.95969-.11914 1.4219 4.0498-.67322 7.1191-4.1752 7.1191-8.4219v-32.918c0-4.7313-3.8097-8.541-8.541-8.541z" fill="#f79329" stroke-width=".5"/>
    </g>
    <g transform="translate(37.306)">
     <rect x="7.9375" y="52.917" width="13.229" height="13.229" ry="2.2596" fill="#fcc21b" stroke-width=".13229"/>
     <path transform="scale(.26458)" d="m38.541 200c-4.2466 0-7.7487 3.0693-8.4219 7.1191.46219-.07683.93723-.11914 1.4219-.11914h32.918c4.7313 0 8.541 3.8097 8.541 8.541v32.918c0 .48465-.04231.95969-.11914 1.4219 4.0498-.67322 7.1191-4.1752 7.1191-8.4219v-32.918c0-4.7313-3.8097-8.541-8.541-8.541z" fill="#f79329" stroke-width=".5"/>
    </g>
    <g transform="translate(52.388)">
     <rect x="7.9375" y="52.917" width="13.229" height="13.229" ry="2.2596" fill="#fcc21b" stroke-width=".13229"/>
     <path transform="scale(.26458)" d="m38.541 200c-4.2466 0-7.7487 3.0693-8.4219 7.1191.46219-.07683.93723-.11914 1.4219-.11914h32.918c4.7313 0 8.541 3.8097 8.541 8.541v32.918c0 .48465-.04231.95969-.11914 1.4219 4.0498-.67322 7.1191-4.1752 7.1191-8.4219v-32.918c0-4.7313-3.8097-8.541-8.541-8.541z" fill="#f79329" stroke-width=".5"/>
    </g>
    <g transform="translate(-7.9375 15.081)">
     <rect x="7.9375" y="52.917" width="13.229" height="13.229" ry="2.2596" fill="#fcc21b" stroke-width=".13229"/>
     <path transform="scale(.26458)" d="m38.541 200c-4.2466 0-7.7487 3.0693-8.4219 7.1191.46219-.07683.93723-.11914 1.4219-.11914h32.918c4.7313 0 8.541 3.8097 8.541 8.541v32.918c0 .48465-.04231.95969-.11914 1.4219 4.0498-.67322 7.1191-4.1752 7.1191-8.4219v-32.918c0-4.7313-3.8097-8.541-8.541-8.541z" fill="#f79329" stroke-width=".5"/>
    </g>
    <g transform="translate(7.1438 15.081)">
     <rect x="7.9375" y="52.917" width="13.229" height="13.229" ry="2.2596" fill="#fcc21b" stroke-width=".13229"/>
     <path transform="scale(.26458)" d="m38.541 200c-4.2466 0-7.7487 3.0693-8.4219 7.1191.46219-.07683.93723-.11914 1.4219-.11914h32.918c4.7313 0 8.541 3.8097 8.541 8.541v32.918c0 .48465-.04231.95969-.11914 1.4219 4.0498-.67322 7.1191-4.1752 7.1191-8.4219v-32.918c0-4.7313-3.8097-8.541-8.541-8.541z" fill="#f79329" stroke-width=".5"/>
    </g>
    <g transform="translate(22.225 15.081)">
     <rect x="7.9375" y="52.917" width="13.229" height="13.229" ry="2.2596" fill="#fcc21b" stroke-width=".13229"/>
     <path transform="scale(.26458)" d="m38.541 200c-4.2466 0-7.7487 3.0693-8.4219 7.1191.46219-.07683.93723-.11914 1.4219-.11914h32.918c4.7313 0 8.541 3.8097 8.541 8.541v32.918c0 .48465-.04231.95969-.11914 1.4219 4.0498-.67322 7.1191-4.1752 7.1191-8.4219v-32.918c0-4.7313-3.8097-8.541-8.541-8.541z" fill="#f79329" stroke-width=".5"/>
    </g>
    <g transform="translate(37.306 15.081)">
     <rect x="7.9375" y="52.917" width="13.229" height="13.229" ry="2.2596" fill="#fcc21b" stroke-width=".13229"/>
     <path transform="scale(.26458)" d="m38.541 200c-4.2466 0-7.7487 3.0693-8.4219 7.1191.46219-.07683.93723-.11914 1.4219-.11914h32.918c4.7313 0 8.541 3.8097 8.541 8.541v32.918c0 .48465-.04231.95969-.11914 1.4219 4.0498-.67322 7.1191-4.1752 7.1191-8.4219v-32.918c0-4.7313-3.8097-8.541-8.541-8.541z" fill="#f79329" stroke-width=".5"/>
    </g>
    <g transform="translate(52.388 15.081)">
     <rect x="7.9375" y="52.917" width="13.229" height="13.229" ry="2.2596" fill="#fcc21b" stroke-width=".13229"/>
     <path transform="scale(.26458)" d="m38.541 200c-4.2466 0-7.7487 3.0693-8.4219 7.1191.46219-.07683.93723-.11914 1.4219-.11914h32.918c4.7313 0 8.541 3.8097 8.541 8.541v32.918c0 .48465-.04231.95969-.11914 1.4219 4.0498-.67322 7.1191-4.1752 7.1191-8.4219v-32.918c0-4.7313-3.8097-8.541-8.541-8.541z" fill="#f79329" stroke-width=".5"/>
    </g>
    <g transform="translate(-7.9375 30.163)">
     <rect x="7.9375" y="52.917" width="13.229" height="13.229" ry="2.2596" fill="#fcc21b" stroke-width=".13229"/>
     <path transform="scale(.26458)" d="m38.541 200c-4.2466 0-7.7487 3.0693-8.4219 7.1191.46219-.07683.93723-.11914 1.4219-.11914h32.918c4.7313 0 8.541 3.8097 8.541 8.541v32.918c0 .48465-.04231.95969-.11914 1.4219 4.0498-.67322 7.1191-4.1752 7.1191-8.4219v-32.918c0-4.7313-3.8097-8.541-8.541-8.541z" fill="#f79329" stroke-width=".5"/>
    </g>
    <g transform="translate(7.1438 30.163)">
     <rect x="7.9375" y="52.917" width="13.229" height="13.229" ry="2.2596" fill="#fcc21b" stroke-width=".13229"/>
     <path transform="scale(.26458)" d="m38.541 200c-4.2466 0-7.7487 3.0693-8.4219 7.1191.46219-.07683.93723-.11914 1.4219-.11914h32.918c4.7313 0 8.541 3.8097 8.541 8.541v32.918c0 .48465-.04231.95969-.11914 1.4219 4.0498-.67322 7.1191-4.1752 7.1191-8.4219v-32.918c0-4.7313-3.8097-8.541-8.541-8.541z" fill="#f79329" stroke-width=".5"/>
    </g>
    <g transform="translate(22.225 30.163)">
     <rect x="7.9375" y="52.917" width="13.229" height="13.229" ry="2.2596" fill="#fcc21b" stroke-width=".13229"/>
     <path transform="scale(.26458)" d="m38.541 200c-4.2466 0-7.7487 3.0693-8.4219 7.1191.46219-.07683.93723-.11914 1.4219-.11914h32.918c4.7313 0 8.541 3.8097 8.541 8.541v32.918c0 .48465-.04231.95969-.11914 1.4219 4.0498-.67322 7.1191-4.1752 7.1191-8.4219v-32.918c0-4.7313-3.8097-8.541-8.541-8.541z" fill="#f79329" stroke-width=".5"/>
    </g>
    <g transform="translate(37.306 30.163)">
     <rect x="7.9375" y="52.917" width="13.229" height="13.229" ry="2.2596" fill="#fcc21b" stroke-width=".13229"/>
     <path transform="scale(.26458)" d="m38.541 200c-4.2466 0-7.7487 3.0693-8.4219 7.1191.46219-.07683.93723-.11914 1.4219-.11914h32.918c4.7313 0 8.541 3.8097 8.541 8.541v32.918c0 .48465-.04231.95969-.11914 1.4219 4.0498-.67322 7.1191-4.1752 7.1191-8.4219v-32.918c0-4.7313-3.8097-8.541-8.541-8.541z" fill="#f79329" stroke-width=".5"/>
    </g>
    <g transform="translate(52.388 30.163)">
     <rect x="7.9375" y="52.917" width="13.229" height="13.229" ry="2.2596" fill="#fcc21b" stroke-width=".13229"/>
     <path transform="scale(.26458)" d="m38.541 200c-4.2466 0-7.7487 3.0693-8.4219 7.1191.46219-.07683.93723-.11914 1.4219-.11914h32.918c4.7313 0 8.541 3.8097 8.541 8.541v32.918c0 .48465-.04231.95969-.11914 1.4219 4.0498-.67322 7.1191-4.1752 7.1191-8.4219v-32.918c0-4.7313-3.8097-8.541-8.541-8.541z" fill="#f79329" stroke-width=".5"/>
    </g>
   </g>
  </g>
  <ellipse cx="43.656" cy="105.83" rx="43.656" ry="3.9688" fill-opacity=".2" stroke-width=".13229">
    <animate attributeName="opacity" values="0.7;1;0.7" dur="3s" repeatCount="indefinite" />
    <animate attributeName="rx" type="scale" values="43.656;39;43.656" dur="3s" repeatCount="indefinite" />
  </ellipse>
 </g>
</svg>
